<svg xmlns="http://www.w3.org/2000/svg" width="60" height="60" viewBox="0 0 60 60">
    <g fill="none" fill-rule="evenodd">
        <g>
            <path d="M0 0H60V60H0z"/>
            <circle cx="30" cy="30" r="30" fill="#FFF"/>
            <path fill="#2A18CC" fill-rule="nonzero" d="M41.88 30.193c.807-1.238 2.35-1.442 3.531-.812l.11.062.109.067c1.102.72 1.354 2.107.845 3.575-.632 1.628-1.389 3.125-2.256 4.498l-.239.372-.256.382c-.114.166-.23.33-.347.494l-.178.244-.26.345-.135.173-.263.33-.26.314-.134.158-.392.444-.258.282-.257.27-.254.259-.25.247-.246.235-.124.115-.24.22-.236.208-.23.198-.225.187-.219.177-.212.166-.206.158-.292.215-.274.194-.253.172-.232.152-.273.17-.277.163.05 2.802c.005.27-.183.499-.437.557l-.064.01-.063.004-12.483-.011c-.29 0-.527-.217-.56-.496l-.004-.065v-2.821l-.192-.111-.303-.188-.288-.188-.322-.222-.265-.191-.281-.212-.296-.231-.207-.168-.214-.178-.328-.284-.227-.204-.465-.434-.24-.234-.243-.245-.246-.256-.25-.267-.251-.278-.25-.286-.26-.305-.253-.309-.132-.164-.256-.327-.132-.174-.259-.349-.255-.357-.132-.189-.255-.376-.194-.295-.193-.302-.252-.408c-.171-.283-.34-.573-.505-.868l-.245-.45-.242-.46c-.215-.42-.423-.85-.624-1.29l-.198-.446-.108-.25c-.6-1.337-.175-2.908.927-3.583l.106-.06.13-.068.134-.064.08-.034.174-.069.177-.06.17-.046c.914-.224 1.776.008 2.437.833l.085.11.077.113.04.066.112.222.162.304.18.322.165.28.19.313.139.222.15.233.16.243.172.252.277.39.2.272.1.133.212.274.222.279.232.28.246.285c1.416 1.611 2.981 2.855 4.672 3.591l.242.102.204.08c.03.012.06.026.088.043l.041.028 3.412 2.519 3.193-2.356.05-.034.055-.027.056-.022c2.087-.676 3.949-2.143 5.563-4.146l.178-.224.22-.288.104-.139.1-.137.197-.277.233-.34.214-.326.16-.253.15-.243.205-.347.181-.32.156-.287.206-.398.235-.494.037-.065zm3.067.216c-.688-.405-1.577-.328-2.06.308l-.045.064-.222.468-.22.425-.166.306-.192.337-.215.364-.158.257-.169.267-.225.343-.246.36-.205.287-.222.3-.226.296c-1.723 2.205-3.732 3.856-6.037 4.67l-.158.052-3.457 2.552c-.16.118-.366.141-.544.07l-.065-.03-.062-.04-3.69-2.723-.138-.054c-1.8-.726-3.442-1.949-4.927-3.537l-.212-.229-.209-.234-.256-.297-.245-.296-.235-.294-.275-.357-.261-.354-.102-.142-.191-.272-.18-.264-.169-.255-.158-.245-.147-.235-.198-.327-.174-.297-.191-.34-.175-.326-.1-.2-.046-.067c-.328-.446-.694-.597-1.127-.543l-.094.014-.095.02-.123.034-.132.045-.11.043-.048.021-.106.05-.105.054c-.608.329-.897 1.257-.57 2.102l.042.101.11.255c.188.43.383.852.585 1.261l.204.405.237.452c.154.288.312.571.473.848l.243.41.247.399.182.286.184.279.31.456.308.431.25.337.12.16.25.319.12.15.25.302.12.144.12.14.242.276.24.265.237.254.235.244.23.233.34.328.33.308.213.19.313.27.201.168.193.156.28.22.264.198.245.177.301.208.264.173.276.17.243.14.198.105c.164.087.273.247.295.428l.005.068v2.593l11.346.01-.046-2.57c-.003-.168.069-.325.191-.432l.056-.043.061-.036.028-.014.238-.13.25-.146.25-.156.214-.14.236-.16.256-.182.275-.203.193-.147.2-.157.205-.167.212-.177.218-.187.224-.197.23-.21.113-.106.234-.223.238-.235.241-.245.244-.257.311-.34.31-.355.122-.143.25-.302.254-.318.123-.157.253-.336.251-.346.245-.35.25-.374c.921-1.404 1.723-2.954 2.377-4.636.347-1.002.202-1.836-.392-2.242l-.078-.05zm-14.559-3.076c2.932 0 5.31 2.367 5.31 5.286 0 2.922-2.38 5.292-5.31 5.292-2.935 0-5.314-2.37-5.314-5.292 0-2.92 2.378-5.286 5.314-5.286zm0 1.122c-2.314 0-4.187 1.864-4.187 4.164 0 2.302 1.874 4.17 4.187 4.17 2.307 0 4.182-1.868 4.182-4.17 0-2.3-1.872-4.164-4.182-4.164zm-5.154-15.987c.212-.365.552-.523.91-.451l.077.019.087.03 1.796.712c.373.138.593.509.537.931l-.015.086-.003.01-.147.957.114.095c.124.107.244.22.36.335l.17.178.09.101.979-.178c.36-.079.681.014.896.275l.05.068.047.076.028.058.774 1.783c.146.343.063.698-.225.963l-.07.06-.043.03-.817.596.013.139c.012.162.017.325.017.49l-.007.249-.01.141.796.546.056.03c.26.154.411.439.404.762l-.007.089-.013.084-.014.05-.02.059-.721 1.79c-.017.042-.04.082-.066.119-.2.278-.404.423-.76.408l-.092-.008-1.074-.163-.092.11c-.107.124-.22.243-.337.36l-.18.17-.104.091.174.945.018.06c.075.296-.023.61-.264.833l-.07.058-.07.05-.088.045-1.785.768c-.337.146-.722.059-.992-.242l-.056-.068-.015-.024-.602-.815-.131.012-.117.007-.116.006-.23.004c-.119 0-.233-.003-.349-.008l-.078-.006-.572.828c-.196.287-.445.454-.785.429l-.087-.01-.09-.02-.091-.03-1.797-.713c-.372-.138-.593-.508-.537-.931l.015-.085.004-.011.147-.957-.114-.095c-.124-.107-.244-.219-.36-.335l-.17-.178-.09-.101-.985.18c-.316.065-.589.039-.83-.211l-.06-.067-.054-.072-.03-.05-.036-.067-.774-1.783c-.15-.352-.043-.76.285-1.017l.074-.053.01-.006.788-.576-.013-.147c-.012-.162-.017-.325-.016-.488l.005-.245.009-.137-.8-.548-.054-.03c-.255-.155-.406-.437-.4-.758l.005-.089.013-.083.014-.051.02-.06.716-1.787c.122-.33.438-.557.857-.54l.092.008.042.009 1.001.152.096-.113c.107-.123.22-.243.336-.358l.18-.17.1-.09-.175-.952-.02-.077c-.061-.286.033-.587.266-.806l.067-.058.073-.052.09-.046 1.788-.77c.358-.152.662-.07.91.168l.056.058.093.11.602.815.132-.011.117-.008.116-.005.23-.004c.118 0 .233.002.348.008l.08.004.55-.793zm.867.722l-.676.977c-.103.15-.271.239-.45.243l-.068-.002-.223-.022c-.137-.01-.278-.015-.428-.015-.251 0-.512.019-.778.056-.183.026-.364-.04-.489-.171l-.044-.052-.705-.96-1.376.592.216 1.169c.028.155-.01.314-.104.438l-.043.05-.05.046-.163.134c-.306.26-.585.558-.83.885-.112.148-.287.231-.47.226l-.068-.007-1.176-.18-.555 1.386.98.673c.132.09.217.23.24.383l.005.067-.003.067-.021.213c-.032.398-.017.802.04 1.207.027.182-.038.364-.17.488l-.054.044-.962.703.59 1.357 1.171-.214c.157-.028.316.01.44.103l.051.043.046.05.135.162c.261.305.56.583.889.827.148.11.231.285.226.467l-.006.068-.18 1.17 1.39.554.677-.977c.09-.13.23-.215.384-.237l.066-.006.068.003.223.021c.137.01.278.016.427.016.252 0 .512-.02.779-.057.182-.025.364.04.488.171l.044.053.706.958 1.376-.59-.216-1.17c-.029-.155.01-.314.104-.438l.043-.05.05-.046.163-.134c.312-.264.589-.558.828-.882.11-.15.287-.233.47-.228l.07.006 1.18.18.555-1.375-.98-.672c-.131-.09-.216-.23-.238-.384l-.005-.067.002-.067.022-.214c.033-.408.02-.81-.04-1.2-.029-.183.036-.367.17-.493l.053-.044.961-.704-.594-1.368-1.171.214c-.157.029-.316-.01-.44-.103l-.051-.043-.046-.05-.135-.162c-.262-.305-.56-.583-.89-.827-.147-.11-.23-.285-.225-.466l.006-.069.18-1.171-1.391-.553zm13.497-.026c.35 0 .651.225.767.588l.021.08.002.019.174.698.123.039c.1.033.198.07.296.11l.145.062.1.047.62-.401c.27-.183.574-.22.853-.076l.076.044.068.048.043.039 1.122 1.078c.257.24.32.585.163.921l-.04.078-.021.03-.39.643.054.105c.046.093.09.189.13.286l.06.147.04.113.699.149.07.01c.262.048.485.224.59.468l.027.075.019.072.009.058.007.094.029 1.554c0 .05-.005.099-.017.147-.074.294-.198.49-.503.603l-.087.029-.785.192-.037.118c-.034.098-.07.196-.11.293l-.063.145-.05.104.386.589.045.058c.152.216.185.494.091.737l-.036.08-.04.07-.035.047-.062.073-1.094 1.129c-.232.23-.582.299-.924.144l-.078-.04-.02-.015-.647-.388-.03.016-.086.043-.088.04-.18.08-.13.052-.14.05-.156.728c-.061.296-.21.523-.502.63l-.083.025-.09.02-.098.008-1.571.028c-.352 0-.662-.227-.765-.557l-.019-.072-.01-.067-.171-.69-.118-.036c-.1-.034-.197-.07-.295-.11l-.145-.062-.105-.05-.648.42-.095.056c-.219.112-.464.133-.73 0l-.081-.045-.044-.031-.062-.052-1.123-1.078c-.263-.247-.32-.628-.137-.973l.043-.073.009-.012.373-.615-.054-.104c-.046-.094-.089-.189-.13-.286l-.059-.147-.041-.114-.699-.149-.07-.009c-.262-.049-.484-.224-.589-.468l-.027-.075-.019-.073-.009-.057-.008-.094-.028-1.565c0-.312.178-.603.53-.741l.085-.03.776-.19.037-.117c.034-.099.071-.196.111-.293l.062-.145.05-.105-.388-.593c-.183-.222-.233-.525-.133-.79l.034-.078.04-.068.035-.05.063-.074 1.095-1.13c.246-.244.537-.29.83-.18l.074.03.12.062.64.387.114-.055.089-.042.185-.08.131-.053.138-.05.146-.694c.05-.348.255-.598.58-.686l.083-.019.082-.01 1.61-.03zm-.261 1.127l-1.029.018-.176.844c-.033.157-.13.29-.265.369l-.06.03-.064.024-.17.05c-.106.035-.21.073-.31.115-.204.086-.386.175-.548.273-.157.093-.349.105-.514.034l-.069-.036-.739-.45-.718.74.475.726c.083.128.11.281.078.426l-.02.072-.032.069-.091.173c-.137.273-.242.56-.317.862-.044.18-.175.324-.346.39l-.066.02-.847.208.017 1.02.852.181c.155.033.286.128.365.26l.031.058.024.062.06.19c.1.295.23.575.387.834.094.156.106.346.035.51l-.035.07-.451.742.742.713.728-.47c.128-.084.283-.11.428-.078l.072.02.07.031.173.091c.275.136.563.241.866.316.18.044.326.174.391.344l.021.066.21.842 1.023-.017.182-.847c.034-.156.131-.288.265-.366l.06-.03.063-.024.17-.051c.107-.034.21-.073.31-.114.195-.082.373-.171.543-.273.157-.093.348-.105.513-.034l.069.035.745.449.718-.738-.474-.726c-.084-.128-.11-.282-.078-.427l.02-.071.031-.069.092-.173c.136-.273.242-.56.316-.862.045-.18.175-.325.347-.39l.066-.02.846-.209-.017-1.02-.852-.18c-.154-.033-.285-.129-.365-.26l-.03-.058-.024-.063-.06-.19c-.1-.294-.23-.575-.387-.833-.095-.156-.106-.347-.035-.511l.035-.069.45-.743-.741-.713-.728.471c-.13.084-.285.11-.43.078l-.072-.022-.07-.03-.171-.091c-.268-.134-.56-.24-.866-.315-.18-.044-.326-.174-.392-.344l-.02-.066-.21-.843zm-15.07 1.96c1.969 0 3.568 1.592 3.568 3.552s-1.599 3.552-3.567 3.552c-1.969 0-3.568-1.593-3.568-3.552 0-1.96 1.6-3.552 3.568-3.552zm17.396 2.277c.626 1.51-.087 3.245-1.6 3.874-1.516.63-3.26-.083-3.894-1.592-.632-1.51.084-3.246 1.6-3.876 1.516-.63 3.26.083 3.894 1.594zm-17.395-1.155c-1.346 0-2.44 1.09-2.44 2.43s1.094 2.43 2.44 2.43c1.345 0 2.44-1.09 2.44-2.43s-1.095-2.43-2.44-2.43zm13.935.596c-.941.391-1.386 1.471-.993 2.409.393.937 1.477 1.38 2.419.989.938-.39 1.382-1.47.993-2.409-.393-.937-1.477-1.38-2.42-.989z"/>
        </g>
    </g>
</svg>
